<svg width="100" height="100" viewBox="0 0 100 100" fill="none" xmlns="http://www.w3.org/2000/svg">
<rect width="100" height="100" rx="50" fill="#0053AD" fill-opacity="0.4"/>
<path opacity="0.12" d="M63.6 40H36.4C34.1598 40 33.0397 40 32.184 40.436C31.4314 40.8195 30.8195 41.4314 30.436 42.184C30 43.0397 30 44.1598 30 46.4V53.6C30 55.8402 30 56.9604 30.436 57.816C30.8195 58.5686 31.4314 59.1806 32.184 59.564C33.0397 60 34.1598 60 36.4 60H63.6C65.8402 60 66.9604 60 67.816 59.564C68.5686 59.1806 69.1806 58.5686 69.564 57.816C70 56.9604 70 55.8402 70 53.6V46.4C70 44.1598 70 43.0397 69.564 42.184C69.1806 41.4314 68.5686 40.8195 67.816 40.436C66.9604 40 65.8402 40 63.6 40Z" fill="#0053AD"/>
<path d="M50 50H50.01M60 50H60.01M40 50H40.01M36.4 40H63.6C65.8402 40 66.9604 40 67.816 40.436C68.5686 40.8195 69.1806 41.4314 69.564 42.184C70 43.0397 70 44.1598 70 46.4V53.6C70 55.8402 70 56.9604 69.564 57.816C69.1806 58.5686 68.5686 59.1806 67.816 59.564C66.9604 60 65.8402 60 63.6 60H36.4C34.1598 60 33.0397 60 32.184 59.564C31.4314 59.1806 30.8195 58.5686 30.436 57.816C30 56.9604 30 55.8402 30 53.6V46.4C30 44.1598 30 43.0397 30.436 42.184C30.8195 41.4314 31.4314 40.8195 32.184 40.436C33.0397 40 34.1598 40 36.4 40ZM50.5 50C50.5 50.2762 50.2762 50.5 50 50.5C49.7238 50.5 49.5 50.2762 49.5 50C49.5 49.7238 49.7238 49.5 50 49.5C50.2762 49.5 50.5 49.7238 50.5 50ZM60.5 50C60.5 50.2762 60.2762 50.5 60 50.5C59.7238 50.5 59.5 50.2762 59.5 50C59.5 49.7238 59.7238 49.5 60 49.5C60.2762 49.5 60.5 49.7238 60.5 50ZM40.5 50C40.5 50.2762 40.2761 50.5 40 50.5C39.7239 50.5 39.5 50.2762 39.5 50C39.5 49.7238 39.7239 49.5 40 49.5C40.2761 49.5 40.5 49.7238 40.5 50Z" stroke="#0053AD" stroke-width="4" stroke-linecap="round" stroke-linejoin="round"/>
</svg>
