<svg width="159" height="43" viewBox="0 0 159 43" fill="none" xmlns="http://www.w3.org/2000/svg">
<path d="M6.45037 0.0122743C6.68386 0.0122743 6.91888 0.0122716 7.15544 0.0383489C7.3776 0.052838 7.59573 0.104699 7.8006 0.191744C7.98567 0.270474 8.14521 0.398997 8.26142 0.562968C8.39256 0.770726 8.45539 1.01421 8.44114 1.25938C8.4549 1.50161 8.39202 1.74201 8.26142 1.94659C8.14584 2.11152 7.98616 2.24068 7.8006 2.31934C7.59478 2.40348 7.37714 2.45522 7.15544 2.47274C6.91888 2.49268 6.68386 2.50342 6.45037 2.50342H5.55637V10.279C5.55637 10.5291 5.54868 10.7745 5.53332 11.0138C5.52339 11.2339 5.47451 11.4504 5.38893 11.6535C5.30708 11.8409 5.16918 11.9984 4.99415 12.1044C4.75342 12.2156 4.49135 12.2732 4.22611 12.2732C3.96087 12.2732 3.6988 12.2156 3.45806 12.1044C3.28303 11.9984 3.14514 11.8409 3.06328 11.6535C2.97698 11.4507 2.92807 11.234 2.91889 11.0138C2.90353 10.7745 2.89586 10.5291 2.89586 10.279V2.49114H2.00185C1.76836 2.49114 1.54103 2.48041 1.29525 2.46047C1.07407 2.4428 0.856959 2.39106 0.651628 2.30708C0.463253 2.22965 0.300771 2.10038 0.183112 1.93433C0.0519714 1.72993 -0.0114413 1.4895 0.00185429 1.24711C-0.0119343 1.00177 0.0514413 0.758275 0.183112 0.550694C0.300986 0.385201 0.463447 0.256485 0.651628 0.17948C0.856015 0.092602 1.0736 0.0407439 1.29525 0.026084C1.53334 0.00767652 1.76836 0 2.00185 0L6.45037 0.0122743Z" fill="white"/>
<path d="M16.5166 10.2897C16.5166 10.5352 16.5074 10.776 16.4905 11.0122C16.4787 11.2315 16.4266 11.4468 16.3369 11.6473C16.2508 11.832 16.1139 11.9884 15.9421 12.0983C15.7181 12.2239 15.4628 12.283 15.2063 12.2685C14.9451 12.2822 14.6849 12.2266 14.4521 12.1075C14.2853 12.0135 14.146 11.8776 14.0481 11.7132C13.9623 11.5635 13.9075 11.3982 13.8868 11.227C13.8676 11.0846 13.8574 10.9411 13.8561 10.7975C13.7988 10.9768 13.7237 11.15 13.6318 11.3144C13.4279 11.6851 13.1025 11.9743 12.7102 12.1335C12.4719 12.2284 12.217 12.2743 11.9605 12.2685C11.6328 12.2694 11.3071 12.2176 10.9959 12.1151C10.6702 12.0088 10.3733 11.8293 10.128 11.5905C9.85276 11.3194 9.63903 10.9925 9.50125 10.6318C9.32773 10.1655 9.24585 9.67023 9.26008 9.17301V6.62357C9.24547 6.12383 9.32735 5.62594 9.50125 5.15711C9.63828 4.79738 9.85215 4.4718 10.128 4.203C10.3747 3.96664 10.6712 3.78843 10.9959 3.68145C11.3073 3.57975 11.6329 3.52798 11.9605 3.52805C12.2166 3.52289 12.4713 3.5677 12.7102 3.65998C12.9137 3.739 13.1011 3.8544 13.2631 4.00051C13.4119 4.13681 13.5375 4.29639 13.6349 4.47297C13.7276 4.63961 13.8028 4.81543 13.8591 4.99758C13.8508 4.74994 13.8926 4.50315 13.982 4.27203C14.0485 4.0975 14.1535 3.9402 14.2892 3.81184C14.4138 3.70041 14.5626 3.61952 14.724 3.5756C14.8795 3.53199 15.0402 3.5098 15.2017 3.50964C15.4472 3.49789 15.6909 3.557 15.9037 3.67991C16.0749 3.78931 16.2126 3.94378 16.3015 4.1263C16.397 4.32763 16.4562 4.54414 16.4766 4.76595C16.5039 5.01146 16.5173 5.25831 16.5166 5.50532V10.2897ZM11.9575 8.94139C11.9575 9.09478 11.9575 9.24818 11.9744 9.40157C11.9842 9.54292 12.0169 9.68175 12.0711 9.81267C12.1195 9.93009 12.1998 10.0316 12.3031 10.1057C12.4301 10.1854 12.5788 10.2235 12.7286 10.2146C12.9259 10.2226 13.1208 10.169 13.2862 10.0612C13.4426 9.9397 13.5596 9.77481 13.6226 9.58717C13.7155 9.32755 13.7733 9.05673 13.7946 8.78185C13.8264 8.45767 13.8453 8.07112 13.8515 7.62218C13.849 7.4127 13.8326 7.20363 13.8023 6.99633C13.7719 6.767 13.7147 6.54202 13.6318 6.32598C13.5564 6.126 13.4397 5.94412 13.2893 5.79217C13.2154 5.71978 13.1277 5.66303 13.0313 5.62533C12.935 5.58764 12.832 5.56978 12.7286 5.57282C12.5789 5.56461 12.4303 5.60264 12.3031 5.68173C12.2018 5.7546 12.1217 5.85307 12.0711 5.96704C12.0165 6.09356 11.9838 6.22842 11.9744 6.36587C11.9636 6.51926 11.9575 6.67266 11.9575 6.81685V8.94139Z" fill="white"/>
<path d="M18.7791 1.94829C18.7791 1.70286 18.7868 1.46356 18.8052 1.2304C18.8195 1.01543 18.8715 0.804631 18.9588 0.607613C19.0388 0.429185 19.1683 0.277443 19.3321 0.170439C19.5419 0.0523064 19.7815 -0.0025782 20.0218 0.0124372C20.2685 -0.00204888 20.514 0.0555205 20.7284 0.178107C20.8909 0.285319 21.0189 0.437129 21.0971 0.615281C21.1791 0.813554 21.2279 1.02396 21.2415 1.23807C21.2584 1.47123 21.2676 1.71052 21.2676 1.95596V5.40582H21.4043L23.2107 3.2859C23.3107 3.16905 23.4371 3.07756 23.5794 3.01899C23.7176 2.96089 23.8657 2.92966 24.0157 2.92695C24.1674 2.9278 24.3178 2.95585 24.4596 3.00978C24.6044 3.06408 24.7381 3.14412 24.8544 3.24602C24.9695 3.35042 25.0643 3.47524 25.1339 3.61416C25.2095 3.76498 25.2475 3.93181 25.2445 4.10043C25.2423 4.33852 25.1551 4.56801 24.9988 4.74776L23.4258 6.60845L25.1447 9.88344C25.2481 10.0889 25.3389 10.3005 25.4166 10.517C25.4899 10.7133 25.5284 10.921 25.5302 11.1305C25.5338 11.3051 25.4914 11.4775 25.4074 11.6306C25.329 11.7734 25.2199 11.8971 25.0878 11.9926C24.9549 12.0901 24.8063 12.1642 24.6485 12.212C24.4996 12.2602 24.3442 12.2856 24.1877 12.2872C24.0053 12.2897 23.8259 12.2408 23.67 12.146C23.5191 12.0539 23.3846 11.9373 23.2722 11.8009C23.1559 11.6638 23.053 11.5158 22.965 11.3591C22.8774 11.2057 22.8114 11.0523 22.7453 10.9204L21.7638 8.83729H21.2722V10.3083C21.2722 10.5522 21.263 10.7931 21.2461 11.0308C21.2326 11.2469 21.1839 11.4594 21.1017 11.6598C21.025 11.8404 20.8968 11.9946 20.733 12.1031C20.5186 12.2257 20.2731 12.2832 20.0264 12.2687C19.7833 12.2826 19.5413 12.225 19.3306 12.1031C19.1655 11.9949 19.0357 11.8408 18.9573 11.6598C18.8698 11.4607 18.8178 11.2478 18.8037 11.0308C18.7853 10.7931 18.7776 10.5522 18.7776 10.3083L18.7791 1.94829Z" fill="white"/>
<path d="M34.5622 7.27113C34.5622 7.36471 34.5622 7.47515 34.5437 7.5994C34.5308 7.72926 34.4843 7.85351 34.4086 7.95988C34.3119 8.08842 34.1832 8.18943 34.0353 8.25286C33.8075 8.34554 33.5621 8.38743 33.3164 8.37558H29.8264V9.21619C29.8276 9.36348 29.8456 9.51016 29.8802 9.65336C29.9132 9.80347 29.9741 9.94605 30.0599 10.0737C30.146 10.2036 30.2612 10.3118 30.3963 10.3897C30.5549 10.4756 30.7336 10.5179 30.9139 10.5124C31.0975 10.5211 31.281 10.4924 31.4531 10.428C31.5661 10.3818 31.6678 10.3116 31.7511 10.2225C31.8249 10.1411 31.8912 10.0533 31.9493 9.96015C32.0123 9.86104 32.0905 9.77252 32.1812 9.69785C32.3012 9.60335 32.4384 9.53301 32.5852 9.49076C32.8179 9.42791 33.0586 9.4 33.2995 9.40793C33.4421 9.40793 33.5844 9.41973 33.725 9.44321C33.8537 9.46353 33.9773 9.50832 34.0891 9.57514C34.195 9.64105 34.2822 9.73293 34.3425 9.84204C34.4123 9.97852 34.4457 10.1307 34.4393 10.2838C34.45 10.6358 34.3208 10.9777 34.0798 11.2349C33.8255 11.5007 33.5176 11.7098 33.1766 11.8485C32.7985 12.0051 32.4021 12.1139 31.9969 12.1721C31.6041 12.234 31.2072 12.2663 30.8095 12.2688C30.3428 12.2655 29.8783 12.2037 29.427 12.0847C29.0059 11.9773 28.6106 11.7869 28.2642 11.5248C27.9203 11.2581 27.6453 10.9131 27.4624 10.5185C27.2508 10.0387 27.149 9.51781 27.1644 8.99376V6.93979C27.1535 6.46189 27.2199 5.98537 27.361 5.52856C27.4731 5.17996 27.6469 4.85422 27.874 4.56677C28.0695 4.32231 28.3112 4.11854 28.5852 3.967C28.8368 3.82778 29.1045 3.7201 29.3825 3.6464C29.634 3.57982 29.8911 3.53618 30.1505 3.51601C30.3932 3.49761 30.6021 3.48993 30.7772 3.48993C31.2859 3.4802 31.7939 3.5317 32.2903 3.64333C32.6579 3.72871 33.0109 3.86775 33.3379 4.05596C33.5951 4.20704 33.8201 4.40719 34 4.645C34.1562 4.85435 34.28 5.08602 34.3671 5.33221C34.4473 5.56439 34.4989 5.80546 34.5207 6.0501C34.5437 6.29247 34.556 6.51949 34.556 6.72964L34.5622 7.27113ZM29.8264 7.06865H32.0184C32.0184 6.79407 32.0184 6.55017 31.9969 6.33695C31.9893 6.15065 31.9449 5.96768 31.8663 5.79853C31.7928 5.65232 31.6722 5.53507 31.5238 5.46567C31.3142 5.37951 31.0881 5.34075 30.8617 5.35215C30.6667 5.342 30.4723 5.38104 30.2964 5.46567C30.1711 5.53197 30.0652 5.62979 29.9892 5.74945C29.9206 5.86026 29.8756 5.98403 29.8571 6.113C29.8411 6.22635 29.8324 6.3406 29.831 6.45507L29.8264 7.06865Z" fill="white"/>
<path d="M8.57146 15.9467C8.88179 15.9467 9.19417 15.9467 9.50858 15.9814C9.80383 16.0009 10.0937 16.0698 10.3661 16.1853C10.6118 16.2904 10.8237 16.4611 10.9786 16.6787C11.1528 16.9548 11.2364 17.2784 11.2174 17.6043C11.2357 17.9262 11.1521 18.2458 10.9786 18.5177C10.8244 18.7363 10.6123 18.9079 10.3661 19.0131C10.0924 19.1247 9.80322 19.1935 9.50858 19.217C9.19417 19.2435 8.88179 19.2577 8.57146 19.2577H7.38118V29.5924C7.38118 29.9247 7.38119 30.251 7.35261 30.569C7.33941 30.8615 7.27444 31.1493 7.1607 31.4192C7.0519 31.6683 6.86863 31.8776 6.63599 32.0186C6.31603 32.1664 5.96771 32.2429 5.61517 32.2429C5.26264 32.2429 4.91432 32.1664 4.59435 32.0186C4.36172 31.8776 4.17844 31.6683 4.06965 31.4192C3.9517 31.1501 3.88257 30.8622 3.86549 30.569C3.84711 30.251 3.8369 29.9247 3.8369 29.5924V19.2414H2.65071C2.34038 19.2414 2.03822 19.2272 1.71156 19.2007C1.41754 19.1774 1.12894 19.1087 0.85611 18.9968C0.609477 18.8922 0.39724 18.7206 0.243618 18.5014C0.0684108 18.2301 -0.0159507 17.9102 0.00270592 17.588C-0.0165932 17.2618 0.0677165 16.9379 0.243618 16.6624C0.397524 16.4439 0.609733 16.273 0.85611 16.169C1.12769 16.0533 1.41693 15.9843 1.71156 15.9651C2.02801 15.9406 2.34038 15.9304 2.65071 15.9304L8.57146 15.9467Z" fill="white"/>
<path d="M22.4707 29.6068C22.4717 29.9276 22.454 30.2483 22.4177 30.5671C22.3889 30.8596 22.3102 31.1451 22.1849 31.4111C22.068 31.6562 21.8848 31.8638 21.6561 32.0105C21.3586 32.1594 21.0304 32.237 20.6976 32.237C20.3648 32.237 20.0366 32.1594 19.739 32.0105C19.5049 31.8642 19.3151 31.657 19.1898 31.4111C19.0564 31.1471 18.972 30.8611 18.9407 30.5671C18.9003 30.2486 18.8805 29.9278 18.8815 29.6068V25.0134C18.8815 24.8095 18.8815 24.6056 18.8591 24.414C18.8463 24.2313 18.8028 24.0521 18.7305 23.8839C18.6637 23.7327 18.5571 23.6023 18.4222 23.5067C18.2537 23.3999 18.0559 23.3485 17.8566 23.3599C17.7156 23.3547 17.575 23.3796 17.4443 23.433C17.3137 23.4865 17.196 23.5672 17.0992 23.6698C16.8822 23.9134 16.7243 24.2036 16.6378 24.5179C16.5151 24.9353 16.4371 25.3645 16.405 25.7983C16.3615 26.2917 16.3404 26.8218 16.3417 27.3886V29.6068C16.3417 29.9276 16.324 30.2482 16.2887 30.5671C16.2599 30.8604 16.179 31.1462 16.0498 31.4111C15.9266 31.6577 15.7371 31.8653 15.5026 32.0105C15.2034 32.1755 14.864 32.2539 14.5226 32.2369C14.189 32.2545 13.8573 32.1759 13.5671 32.0105C13.3378 31.8639 13.154 31.6563 13.0363 31.4111C12.911 31.1451 12.8323 30.8596 12.8036 30.5671C12.7683 30.2482 12.7505 29.9276 12.7505 29.6068V18.5667C12.7505 18.2459 12.7683 17.9253 12.8036 17.6064C12.8323 17.3139 12.911 17.0284 13.0363 16.7624C13.154 16.5171 13.3378 16.3096 13.5671 16.1629C13.8573 15.9975 14.189 15.919 14.5226 15.9366C14.864 15.9196 15.2034 15.998 15.5026 16.1629C15.7371 16.3082 15.9266 16.5158 16.0498 16.7624C16.179 17.0273 16.2599 17.3131 16.2887 17.6064C16.324 17.9253 16.3417 18.2459 16.3417 18.5667V22.5464C16.4171 22.3071 16.5184 22.0767 16.6439 21.8594C16.7786 21.6231 16.9518 21.4108 17.1564 21.2314C17.3762 21.038 17.6267 20.8823 17.8975 20.7706C18.2099 20.6449 18.5447 20.5839 18.8815 20.5912C19.3197 20.5931 19.7547 20.6654 20.1698 20.8053C20.6025 20.951 20.9967 21.1921 21.3233 21.5107C21.6827 21.8778 21.9609 22.3161 22.14 22.7972C22.3705 23.424 22.4793 24.089 22.4605 24.7565L22.4707 29.6068Z" fill="white"/>
<path d="M34.3823 25.5942C34.3823 25.7186 34.3823 25.8654 34.3598 26.0305C34.342 26.2033 34.2794 26.3684 34.1781 26.5097C34.0502 26.6802 33.8799 26.8144 33.684 26.8991C33.3804 27.0218 33.0537 27.0774 32.7265 27.0622H28.0899V28.1794C28.0908 28.3751 28.1141 28.5701 28.1593 28.7605C28.2052 28.9594 28.2861 29.1485 28.3982 29.3191C28.5129 29.4923 28.6668 29.6362 28.8474 29.7391C29.0574 29.8535 29.2943 29.9098 29.5334 29.9022C29.7774 29.9142 30.0213 29.876 30.25 29.7901C30.4002 29.7286 30.5353 29.6354 30.6461 29.5169C30.7441 29.4087 30.8322 29.2921 30.9094 29.1682C30.9931 29.0365 31.0972 28.9189 31.2177 28.8196C31.3775 28.6944 31.5597 28.601 31.7547 28.5444C32.0639 28.4608 32.3839 28.4237 32.704 28.4343C32.8935 28.4343 33.0827 28.45 33.2696 28.4812C33.4406 28.5082 33.6049 28.5677 33.7534 28.6565C33.8942 28.7441 34.0102 28.8662 34.0903 29.0113C34.1831 29.1927 34.2274 29.3949 34.2189 29.5984C34.2331 30.0663 34.0614 30.5207 33.7412 30.8625C33.4031 31.2158 32.994 31.4937 32.5407 31.678C32.0381 31.8863 31.5113 32.0308 30.9727 32.1082C30.4506 32.1906 29.9231 32.2335 29.3945 32.2366C28.7742 32.2324 28.1569 32.1502 27.5571 31.992C26.998 31.8493 26.4732 31.5962 26.0136 31.2478C25.5559 30.8934 25.1898 30.4349 24.9458 29.9104C24.6646 29.2726 24.5293 28.5803 24.5497 27.8838V25.1538C24.5348 24.5185 24.6237 23.8849 24.8131 23.2782C24.9614 22.8145 25.1924 22.3814 25.495 21.9998C25.7541 21.675 26.0746 21.4041 26.4383 21.2027C26.7726 21.0176 27.1284 20.8745 27.4979 20.7765C27.8322 20.6881 28.1738 20.6301 28.5187 20.6033C28.8412 20.5788 29.1189 20.5686 29.3517 20.5686C30.0278 20.5555 30.703 20.624 31.3627 20.7725C31.8513 20.886 32.3204 21.0708 32.7551 21.3209C33.0992 21.5193 33.4004 21.784 33.6412 22.0997C33.8487 22.3784 34.0138 22.6862 34.1311 23.0131C34.2368 23.322 34.3053 23.6423 34.3353 23.9673C34.3659 24.2894 34.3823 24.5911 34.3823 24.8705V25.5942ZM28.0899 25.3251H31.0034C31.0034 24.9595 30.9931 24.6353 30.9727 24.3526C30.9626 24.105 30.9036 23.8618 30.7992 23.637C30.7015 23.4426 30.5411 23.2868 30.3439 23.1946C30.0654 23.0797 29.7648 23.0281 29.464 23.0437C29.2048 23.0302 28.9464 23.0821 28.7126 23.1946C28.5464 23.2832 28.4058 23.4131 28.3043 23.5717C28.2137 23.7191 28.1546 23.8836 28.1308 24.0549C28.1085 24.2055 28.0969 24.3574 28.0961 24.5096L28.0899 25.3251Z" fill="white"/>
<path d="M53.7193 0.98063C55.1893 0.950285 56.6553 1.14349 58.067 1.55362C59.1664 1.8743 60.2056 2.3732 61.143 3.03038C61.9312 3.59358 62.6115 4.29391 63.1512 5.09785C63.6354 5.83376 64.025 6.6276 64.3106 7.46067C64.5657 8.2042 64.7422 8.97237 64.8371 9.75261C64.9142 10.3838 64.9566 11.0188 64.9642 11.6547C64.9603 11.9352 64.9405 12.2152 64.9051 12.4935C64.8587 12.8402 64.7209 13.1684 64.5058 13.4445C64.2147 13.7932 63.8389 14.0617 63.4144 14.2242C62.734 14.4671 62.0127 14.5754 61.2909 14.5432C60.9951 14.5432 60.6017 14.5255 60.1433 14.4871C59.6882 14.4499 59.2404 14.3505 58.8124 14.1917C58.401 14.0427 58.0259 13.8082 57.7121 13.5036C57.5535 13.3382 57.4309 13.1418 57.3521 12.9268C57.2732 12.7118 57.2397 12.4828 57.2537 12.2542C57.2594 11.5111 57.209 10.7687 57.1028 10.0332C57.0269 9.44693 56.8445 8.8794 56.5646 8.35853C56.3142 7.91037 55.9392 7.54416 55.485 7.30412C54.9322 7.03948 54.323 6.91376 53.7104 6.93789C53.0966 6.89865 52.487 7.06382 51.9772 7.40751C51.6084 7.67604 51.305 8.02438 51.09 8.42648C50.87 8.8945 50.7454 9.40148 50.7232 9.918V24.4464C50.7388 25.0542 50.863 25.6543 51.09 26.2185C51.291 26.6844 51.5942 27.0992 51.9772 27.4324C52.4651 27.8269 53.084 28.0231 53.7104 27.9818C54.3329 28.01 54.95 27.8549 55.485 27.5358C55.945 27.2363 56.3175 26.8205 56.5646 26.3307C56.8376 25.784 57.0194 25.1964 57.1028 24.5911C57.2055 23.9068 57.2559 23.2156 57.2537 22.5237C57.2548 22.283 57.2927 22.044 57.3661 21.8148C57.4669 21.5393 57.6522 21.3027 57.8955 21.1384C58.2643 20.891 58.6768 20.7156 59.1111 20.6216C59.8268 20.4663 60.5586 20.3969 61.2909 20.4148C62.011 20.3787 62.7316 20.4789 63.4144 20.7102C63.8281 20.8608 64.2015 21.1043 64.5058 21.422C64.7107 21.6478 64.8462 21.9277 64.8962 22.2283C64.925 22.3905 64.9448 22.5542 64.9554 22.7186C64.9814 24.2619 64.6926 25.7944 64.1065 27.2227C63.5666 28.506 62.7472 29.6532 61.7079 30.5809C60.631 31.5219 59.3744 32.2353 58.0138 32.6779C56.4864 33.1745 54.8878 33.418 53.2816 33.3985C53.0065 33.3985 52.5599 33.3749 51.9388 33.3306C51.2393 33.2693 50.5465 33.1467 49.8685 32.9644C49.0515 32.7504 48.2587 32.4535 47.5023 32.0783C46.6682 31.6653 45.9173 31.1027 45.2871 30.4184C44.5806 29.6409 44.0241 28.7397 43.6456 27.7602C43.186 26.5172 42.9681 25.198 43.0038 23.8734V11.064C42.9943 9.94342 43.1559 8.82797 43.4829 7.75602C43.7545 6.86313 44.1604 6.01664 44.6867 5.24552C45.1575 4.5618 45.7358 3.95842 46.3991 3.45864C47.0151 2.99267 47.6759 2.589 48.3719 2.2536C50.0545 1.48613 51.8709 1.05374 53.7193 0.98063Z" fill="white"/>
<path d="M53.7193 1.00309C55.1893 0.972746 56.6553 1.16595 58.067 1.57608C59.1664 1.89676 60.2056 2.39566 61.143 3.05284C61.9312 3.61604 62.6115 4.31637 63.1512 5.12031C63.6354 5.85622 64.025 6.65007 64.3106 7.48313C64.5657 8.22666 64.7422 8.99483 64.8371 9.77507C64.9142 10.4063 64.9566 11.0413 64.9642 11.6771C64.9603 11.9576 64.9405 12.2377 64.9051 12.5159C64.8587 12.8626 64.7209 13.1908 64.5058 13.467C64.2147 13.8157 63.8389 14.0841 63.4144 14.2467C62.734 14.4895 62.0127 14.5979 61.2909 14.5657C60.9951 14.5657 60.6017 14.548 60.1433 14.5096C59.6882 14.4724 59.2404 14.373 58.8124 14.2142C58.401 14.0652 58.0259 13.8306 57.7121 13.526C57.5535 13.3606 57.4309 13.1643 57.3521 12.9492C57.2732 12.7342 57.2397 12.5053 57.2537 12.2767C57.2594 11.5336 57.209 10.7912 57.1028 10.0557C57.0269 9.46939 56.8445 8.90186 56.5646 8.38099C56.3142 7.93283 55.9392 7.56662 55.485 7.32658C54.9322 7.06194 54.323 6.93622 53.7104 6.96035C53.0966 6.92112 52.487 7.08628 51.9772 7.42997C51.6084 7.69851 51.305 8.04685 51.09 8.44894C50.87 8.91697 50.7454 9.42394 50.7232 9.94046V24.4689C50.7388 25.0767 50.863 25.6768 51.09 26.241C51.291 26.7068 51.5942 27.1217 51.9772 27.4549C52.4651 27.8493 53.084 28.0455 53.7104 28.0042C54.3329 28.0324 54.95 27.8773 55.485 27.5582C55.945 27.2587 56.3175 26.843 56.5646 26.3532C56.8376 25.8065 57.0194 25.2189 57.1028 24.6136C57.2055 23.9292 57.2559 23.2381 57.2537 22.5461C57.2548 22.3055 57.2927 22.0664 57.3661 21.8373C57.4669 21.5618 57.6522 21.3251 57.8955 21.1609C58.2643 20.9135 58.6768 20.7381 59.1111 20.644C59.8268 20.4888 60.5586 20.4193 61.2909 20.4373C62.011 20.4011 62.7316 20.5013 63.4144 20.7326C63.8281 20.8832 64.2015 21.1268 64.5058 21.4445C64.7107 21.6703 64.8462 21.9502 64.8962 22.2508C64.925 22.413 64.9448 22.5766 64.9554 22.741C64.9814 24.2844 64.6926 25.8169 64.1065 27.2452C63.5666 28.5285 62.7472 29.6757 61.7079 30.6033C60.631 31.5444 59.3744 32.2577 58.0138 32.7003C56.4864 33.197 54.8878 33.4404 53.2816 33.421C53.0065 33.421 52.5599 33.3974 51.9388 33.3531C51.2393 33.2918 50.5465 33.1692 49.8685 32.9868C49.0515 32.7729 48.2587 32.476 47.5023 32.1008C46.6682 31.6878 45.9173 31.1251 45.2871 30.4409C44.5806 29.6633 44.0241 28.7622 43.6456 27.7827C43.186 26.5397 42.9681 25.2205 43.0038 23.8959V11.0864C42.9943 9.96588 43.1559 8.85043 43.4829 7.77848C43.7545 6.88559 44.1604 6.0391 44.6867 5.26798C45.1575 4.58426 45.7358 3.98088 46.3991 3.4811C47.0151 3.01513 47.6759 2.61146 48.3719 2.27606C50.0545 1.50859 51.8709 1.0762 53.7193 1.00309Z" fill="white"/>
<path d="M112.008 28.0232C112.009 28.6659 111.971 29.308 111.893 29.946C111.829 30.5287 111.663 31.0957 111.402 31.6206C111.155 32.1041 110.782 32.5122 110.323 32.802C109.747 33.1283 109.091 33.284 108.43 33.251C107.779 33.2834 107.133 33.1275 106.569 32.802C106.116 32.5115 105.751 32.1031 105.513 31.6206C105.26 31.094 105.101 30.5273 105.043 29.946C104.974 29.3074 104.939 28.6655 104.94 28.0232V19.0829C104.94 18.6576 104.922 18.2352 104.883 17.8247C104.854 17.4498 104.765 17.0819 104.62 16.7349C104.49 16.432 104.279 16.1705 104.011 15.9788C103.688 15.7682 103.307 15.6648 102.923 15.6834C102.64 15.6719 102.358 15.7214 102.096 15.8284C101.834 15.9354 101.599 16.0975 101.405 16.3036C100.981 16.7942 100.671 17.3734 100.5 17.999C100.258 18.8236 100.108 19.6725 100.054 20.5301C99.9767 21.5028 99.9383 22.5454 99.9383 23.6579V28.0144C99.939 28.657 99.9005 29.2991 99.8229 29.9371C99.7598 30.5203 99.5925 31.0875 99.329 31.6118C99.083 32.095 98.7111 32.5032 98.2524 32.7932C97.676 33.1195 97.0184 33.2752 96.3566 33.2421C95.707 33.2745 95.062 33.1186 94.4992 32.7932C94.0461 32.5027 93.681 32.0942 93.4433 31.6118C93.1877 31.086 93.0285 30.5189 92.973 29.9371C92.9038 29.2985 92.8693 28.6567 92.8695 28.0144V15.5091C92.8695 14.8535 92.8922 14.2155 92.9375 13.5953C92.9719 13.024 93.1123 12.4642 93.3516 11.9442C93.5811 11.4639 93.9434 11.0591 94.3956 10.7776C94.9939 10.4465 95.6736 10.2909 96.3566 10.3287C97.0413 10.2919 97.7235 10.4388 98.3323 10.754C98.7668 11.0006 99.1335 11.3506 99.4 11.7729C99.6319 12.1592 99.7837 12.5881 99.8466 13.0341C99.9018 13.4137 99.9325 13.7965 99.9383 14.18C100.072 13.7071 100.265 13.2526 100.512 12.8273C100.776 12.3642 101.112 11.9463 101.509 11.5898C102.451 10.7501 103.677 10.2993 104.94 10.3287C105.798 10.3319 106.651 10.4714 107.465 10.7421C108.317 11.023 109.094 11.4936 109.737 12.1185C110.459 12.8309 111.019 13.6902 111.378 14.6378C111.83 15.8663 112.044 17.1693 112.008 18.4774V28.0232Z" fill="white"/>
<path d="M135.554 28.0675C135.554 28.7084 135.531 29.3405 135.486 29.9577C135.451 30.5326 135.311 31.0961 135.072 31.6206C134.849 32.105 134.49 32.5151 134.04 32.802C133.454 33.133 132.784 33.2888 132.112 33.2509C131.428 33.2871 130.747 33.1403 130.139 32.8256C129.703 32.5804 129.338 32.2249 129.083 31.7948C128.859 31.4026 128.715 30.97 128.66 30.5219C128.609 30.1498 128.582 29.775 128.577 29.3995C128.428 29.8698 128.23 30.3232 127.986 30.7522C127.727 31.2098 127.397 31.6227 127.007 31.975C126.079 32.8177 124.862 33.2696 123.608 33.2362C122.751 33.233 121.899 33.0934 121.085 32.8227C120.233 32.5429 119.456 32.0721 118.814 31.4463C118.094 30.7368 117.535 29.8818 117.173 28.9388C116.72 27.7188 116.506 26.4233 116.543 25.1228V18.4774C116.505 17.1691 116.719 15.8657 117.173 14.6378C117.533 13.6966 118.093 12.8443 118.814 12.1391C119.46 11.5218 120.236 11.0566 121.085 10.7775C121.899 10.5053 122.751 10.3657 123.608 10.3641C124.279 10.3502 124.946 10.4665 125.572 10.7067C126.099 10.9151 126.585 11.2151 127.007 11.5927C127.396 11.9499 127.725 12.3678 127.98 12.8302C128.227 13.2658 128.426 13.7274 128.571 14.2066V6.3886C128.571 5.74138 128.606 5.09462 128.675 4.45109C128.73 3.87165 128.885 3.30611 129.133 2.7794C129.369 2.29576 129.735 1.88684 130.189 1.59799C130.773 1.2719 131.437 1.11729 132.106 1.152C132.748 1.12006 133.386 1.27499 133.942 1.59799C134.393 1.88816 134.754 2.29702 134.986 2.7794C135.236 3.30561 135.391 3.87139 135.445 4.45109C135.515 5.0945 135.55 5.74134 135.548 6.3886L135.554 28.0675ZM123.62 24.538C123.62 24.9515 123.635 25.3561 123.668 25.7519C123.692 26.1226 123.777 26.4868 123.919 26.83C124.046 27.138 124.257 27.4042 124.528 27.5979C124.859 27.8103 125.248 27.9136 125.64 27.8932C126.157 27.9167 126.667 27.7761 127.098 27.4915C127.511 27.1761 127.819 26.7453 127.986 26.254C128.225 25.5732 128.375 24.8644 128.432 24.1452C128.515 23.2975 128.565 22.2874 128.58 21.109C128.575 20.5605 128.533 20.0129 128.456 19.4698C128.376 18.8703 128.225 18.2824 128.006 17.7183C127.812 17.1957 127.51 16.7198 127.119 16.3213C126.925 16.1294 126.694 15.9794 126.44 15.8809C126.185 15.7823 125.913 15.7372 125.64 15.7483C125.248 15.728 124.859 15.8313 124.528 16.0437C124.261 16.2316 124.05 16.489 123.919 16.788C123.776 17.1184 123.691 17.4712 123.668 17.8306C123.635 18.2204 123.62 18.6132 123.62 19.012V24.538Z" fill="white"/>
<path d="M143.357 42.413C141.614 42.413 140.374 42.1649 139.639 41.6687C139.281 41.4305 138.992 41.1035 138.799 40.7198C138.606 40.3361 138.516 39.9089 138.539 39.4801C138.528 39.0775 138.594 38.6766 138.734 38.2987C138.849 37.9997 139.033 37.7324 139.272 37.519C139.502 37.3209 139.773 37.1757 140.065 37.0937C140.375 37.0094 140.696 36.9677 141.017 36.9696C141.245 36.9696 141.461 36.9696 141.659 36.9903C141.857 37.011 142.026 37.0139 142.165 37.0139C142.335 36.9987 142.498 36.9443 142.644 36.8552C142.789 36.766 142.911 36.6444 143.002 36.5C143.306 36.0955 143.567 35.661 143.783 35.2034C144.035 34.6836 144.291 34.1264 144.552 33.5317C144.812 32.9371 145.072 32.3867 145.332 31.8807L144.963 30.9651C144.519 29.8487 144.053 28.6761 143.564 27.4474C143.075 26.2188 142.589 24.9714 142.106 23.7053C141.624 22.4452 141.15 21.1889 140.683 19.9366C140.216 18.6843 139.792 17.4695 139.411 16.292C139.242 15.8017 139.1 15.3203 138.985 14.8477C138.872 14.3906 138.815 13.9215 138.814 13.4507C138.81 13.0227 138.904 12.5995 139.089 12.2132C139.269 11.835 139.527 11.4988 139.846 11.2267C140.533 10.6498 141.403 10.3358 142.301 10.3406C142.712 10.336 143.118 10.4313 143.484 10.6183C143.85 10.807 144.178 11.0636 144.448 11.3744C144.741 11.7085 144.991 12.0776 145.193 12.4731C145.41 12.8937 145.593 13.3301 145.743 13.7785L148.819 23.4513L151.756 13.7785C151.9 13.3385 152.077 12.91 152.286 12.4967C152.486 12.0865 152.741 11.705 153.043 11.3626C153.324 11.0415 153.657 10.7699 154.028 10.5592C154.4 10.351 154.82 10.2441 155.246 10.2491C156.117 10.2504 156.952 10.5917 157.574 11.2001C157.887 11.5156 158.134 11.8896 158.301 12.3006C158.469 12.7117 158.553 13.1517 158.55 13.5954C158.55 14.0556 158.493 14.5141 158.379 14.9599C158.262 15.4146 158.12 15.8623 157.953 16.3008L152.443 30.8647C152.121 31.6877 151.773 32.5472 151.398 33.4431C151.024 34.339 150.615 35.2132 150.171 36.0658C149.739 36.9001 149.264 37.7114 148.748 38.4966C148.277 39.2165 147.739 39.8909 147.142 40.5109C146.614 41.0616 146.006 41.5296 145.338 41.899C144.732 42.2345 144.05 42.4113 143.357 42.413Z" fill="white"/>
<path d="M91.9084 11.4567C91.4489 11.9454 90.9546 12.4005 90.4296 12.8183C87.6671 14.7026 83.7069 13.2495 82.7397 10.0479C82.4949 9.27764 82.4369 8.46032 82.5706 7.66332C82.7044 6.86633 83.0259 6.11249 83.5087 5.46399C83.8638 5.68315 84.1442 6.00436 84.3132 6.38549C84.5032 6.82722 84.8089 7.20963 85.1983 7.49239C85.5876 7.77516 86.0461 7.94782 86.5255 7.99221C86.9499 8.03416 87.3554 8.18851 87.7002 8.43929C88.0449 8.69007 88.3163 9.0282 88.4864 9.41876C88.6815 9.8548 88.9892 10.2312 89.378 10.5094C89.7667 10.7876 90.2225 10.9575 90.6987 11.0018C91.1055 11.1103 91.5015 11.2557 91.8818 11.436C91.9054 11.4331 91.9084 11.4567 91.9084 11.4567Z" fill="white"/>
<path d="M73.7694 36.5979C73.3816 36.2759 73.0696 35.8725 72.8555 35.4165C72.6811 35.0683 72.4233 34.7686 72.1049 34.5439C71.7866 34.3193 71.4175 34.1766 71.0307 34.1287C70.5321 34.0827 70.0549 33.9045 69.6483 33.6127C69.2417 33.3209 68.9205 32.926 68.7178 32.4688C68.5435 32.1041 68.2796 31.7893 67.9507 31.5539C67.6218 31.3184 67.2386 31.1698 66.8367 31.122C66.3542 31.0811 65.892 30.9096 65.4999 30.6258C65.9281 29.9884 66.4977 29.4582 67.1646 29.0766C67.8315 28.6949 68.5776 28.4721 69.3448 28.4255C71.5453 28.3103 73.2223 29.2229 74.2604 31.1781C75.1654 32.8676 75.0412 34.5658 74.083 36.2228C74.012 36.3468 73.9232 36.4945 73.8552 36.6185C73.8295 36.6029 73.7995 36.5957 73.7694 36.5979Z" fill="white"/>
<path d="M74.8932 13.3678C75.9956 12.83 77.1985 12.5281 78.4246 12.4817C79.5537 12.4479 80.6783 12.6381 81.7334 13.0413C82.7884 13.4445 83.7528 14.0526 84.5709 14.8305C85.3889 15.6085 86.0444 16.5407 86.4992 17.5733C86.954 18.6058 87.1992 19.7183 87.2206 20.8461C87.2543 22.103 87.0062 23.3515 86.4945 24.5002C85.9828 25.649 85.2203 26.669 84.263 27.4856C84.0885 27.6481 83.9938 27.6186 83.8164 27.4856C81.8199 26.1116 80.3849 24.0663 79.7733 21.7233C79.442 20.5242 79.0871 19.328 78.6494 18.1791C77.9724 16.4062 76.809 14.8595 75.2925 13.7163C75.189 13.6218 75.0647 13.5509 74.9583 13.4564C74.9257 13.4357 74.9228 13.415 74.8932 13.3678Z" fill="#2CDDFC"/>
<path d="M82.4999 28.6733C81.574 29.1366 80.5722 29.4297 79.5423 29.5387C78.3676 29.6559 77.1813 29.529 76.0581 29.1657C74.935 28.8024 73.8994 28.2107 73.0166 27.428C72.1338 26.6452 71.423 25.6883 70.9289 24.6176C70.4348 23.5468 70.1682 22.3855 70.1459 21.2068C70.0897 18.5486 71.116 16.3453 73.1035 14.5643C73.278 14.4018 73.3727 14.4314 73.5501 14.5643C75.5466 15.9384 76.9816 17.9836 77.5932 20.3266C77.9245 21.5287 78.2794 22.7219 78.7141 23.8708C79.3932 25.6443 80.5574 27.1916 82.074 28.3366C82.1923 28.4311 82.3195 28.5226 82.4999 28.6733Z" fill="#E488FF"/>
</svg>
