<svg width="32" height="50" viewBox="0 0 32 50" fill="none" xmlns="http://www.w3.org/2000/svg">
<rect x="1" y="1" width="30" height="48" rx="15" fill="url(#paint0_linear_115_1876)"/>
<rect x="0.5" y="0.5" width="31" height="49" rx="15.5" stroke="url(#paint1_linear_115_1876)"/>
<path fill-rule="evenodd" clip-rule="evenodd" d="M31 33.9881V34C31 42.2843 24.2843 49 16 49C8.58674 49 2.42952 43.6222 1.21674 36.555C2.49514 36.0063 3.91719 35.1883 5.37641 33.9944C7.74345 35.6217 12.4775 37.9888 18.2472 30C21.3429 33.7149 26.598 34.1908 31 33.9881Z" fill="#181C24"/>
<path d="M5.44275 34.0397C5.70507 35.5977 6.56808 37.9888 8.48316 37.9888C10.2684 37.9888 11.7628 36.3264 12.5483 35.0914C9.45687 36.3811 6.9745 35.0818 5.44275 34.0397Z" fill="#F9F9F9"/>
<path d="M18.2472 30C18.5431 30.7397 19.1348 32.5742 19.1348 33.9944C19.1348 35.7697 19.1348 36.6573 20.0225 37.5449C20.9101 38.4326 24.0169 38.8764 26.6798 37.1011C28.0518 36.1865 29.6201 34.9773 30.8394 33.9952C26.4708 34.1787 21.3054 33.6698 18.2472 30Z" fill="#F9F9F9"/>
<g filter="url(#filter0_f_115_1876)">
<circle cx="4" cy="4" r="4" transform="matrix(-1 0 0 1 27 11)" fill="white"/>
</g>
<circle cx="4" cy="4" r="4" transform="matrix(-1 0 0 1 27 11)" fill="white"/>
<path fill-rule="evenodd" clip-rule="evenodd" d="M23.2426 11.0072C23.1623 11.0024 23.0814 11 23 11C20.7909 11 19 12.7909 19 15C19 15.0814 19.0024 15.1623 19.0072 15.2426C19.5371 15.7138 20.2351 16 21 16C22.6569 16 24 14.6569 24 13C24 12.2351 23.7138 11.5371 23.2426 11.0072Z" fill="#EFEEF9"/>
<g opacity="0.5">
<g filter="url(#filter1_f_115_1876)">
<ellipse cx="17.25" cy="3.25941" rx="0.25" ry="0.25941" fill="white"/>
</g>
<circle cx="17.25" cy="3.25" r="0.25" fill="white"/>
<g filter="url(#filter2_f_115_1876)">
<ellipse cx="8.25" cy="6.25941" rx="0.25" ry="0.25941" fill="white"/>
</g>
<circle cx="8.25" cy="6.25" r="0.25" fill="white"/>
<g filter="url(#filter3_f_115_1876)">
<ellipse cx="13.25" cy="13.2594" rx="0.25" ry="0.25941" fill="white"/>
</g>
<circle cx="13.25" cy="13.25" r="0.25" fill="white"/>
<g filter="url(#filter4_f_115_1876)">
<ellipse cx="6.25" cy="17.2594" rx="0.25" ry="0.25941" fill="white"/>
</g>
<circle cx="6.25" cy="17.25" r="0.25" fill="white"/>
<g filter="url(#filter5_f_115_1876)">
<ellipse cx="3.25" cy="13.2594" rx="0.25" ry="0.25941" fill="white"/>
</g>
<circle cx="3.25" cy="13.25" r="0.25" fill="white"/>
<g filter="url(#filter6_f_115_1876)">
<ellipse cx="9.25" cy="10.2594" rx="0.25" ry="0.25941" fill="white"/>
</g>
<circle cx="9.25" cy="10.25" r="0.25" fill="white"/>
<g filter="url(#filter7_f_115_1876)">
<ellipse cx="15.25" cy="8.25941" rx="0.25" ry="0.25941" fill="white"/>
</g>
<circle cx="15.25" cy="8.25" r="0.25" fill="white"/>
<g filter="url(#filter8_f_115_1876)">
<ellipse cx="22.25" cy="5.25941" rx="0.25" ry="0.25941" fill="white"/>
</g>
<circle cx="22.25" cy="5.25" r="0.25" fill="white"/>
<g filter="url(#filter9_f_115_1876)">
<ellipse cx="16.25" cy="24.2594" rx="0.25" ry="0.25941" fill="white"/>
</g>
<circle cx="16.25" cy="24.25" r="0.25" fill="white"/>
<g filter="url(#filter10_f_115_1876)">
<ellipse cx="11.25" cy="26.2594" rx="0.25" ry="0.25941" fill="white"/>
</g>
<circle cx="11.25" cy="26.25" r="0.25" fill="white"/>
<g filter="url(#filter11_f_115_1876)">
<ellipse cx="10.25" cy="31.2594" rx="0.25" ry="0.25941" fill="white"/>
</g>
<circle cx="10.25" cy="31.25" r="0.25" fill="white"/>
<g filter="url(#filter12_f_115_1876)">
<ellipse cx="6.25" cy="31.2594" rx="0.25" ry="0.25941" fill="white"/>
</g>
<circle cx="6.25" cy="31.25" r="0.25" fill="white"/>
<g filter="url(#filter13_f_115_1876)">
<ellipse cx="4.25" cy="28.2594" rx="0.25" ry="0.25941" fill="white"/>
</g>
<circle cx="4.25" cy="28.25" r="0.25" fill="white"/>
<g filter="url(#filter14_f_115_1876)">
<ellipse cx="22.25" cy="23.2594" rx="0.25" ry="0.25941" fill="white"/>
</g>
<circle cx="22.25" cy="23.25" r="0.25" fill="white"/>
<g filter="url(#filter15_f_115_1876)">
<ellipse cx="27.25" cy="25.2594" rx="0.25" ry="0.25941" fill="white"/>
</g>
<circle cx="27.25" cy="25.25" r="0.25" fill="white"/>
<g filter="url(#filter16_f_115_1876)">
<ellipse cx="25.25" cy="8.25941" rx="0.25" ry="0.25941" fill="white"/>
</g>
<circle cx="25.25" cy="8.25" r="0.25" fill="white"/>
</g>
<defs>
<filter id="filter0_f_115_1876" x="15" y="7" width="16" height="16" filterUnits="userSpaceOnUse" color-interpolation-filters="sRGB">
<feFlood flood-opacity="0" result="BackgroundImageFix"/>
<feBlend mode="normal" in="SourceGraphic" in2="BackgroundImageFix" result="shape"/>
<feGaussianBlur stdDeviation="2" result="effect1_foregroundBlur_115_1876"/>
</filter>
<filter id="filter1_f_115_1876" x="16" y="2" width="2.5" height="2.5188" filterUnits="userSpaceOnUse" color-interpolation-filters="sRGB">
<feFlood flood-opacity="0" result="BackgroundImageFix"/>
<feBlend mode="normal" in="SourceGraphic" in2="BackgroundImageFix" result="shape"/>
<feGaussianBlur stdDeviation="0.5" result="effect1_foregroundBlur_115_1876"/>
</filter>
<filter id="filter2_f_115_1876" x="7" y="5" width="2.5" height="2.5188" filterUnits="userSpaceOnUse" color-interpolation-filters="sRGB">
<feFlood flood-opacity="0" result="BackgroundImageFix"/>
<feBlend mode="normal" in="SourceGraphic" in2="BackgroundImageFix" result="shape"/>
<feGaussianBlur stdDeviation="0.5" result="effect1_foregroundBlur_115_1876"/>
</filter>
<filter id="filter3_f_115_1876" x="12" y="12" width="2.5" height="2.5188" filterUnits="userSpaceOnUse" color-interpolation-filters="sRGB">
<feFlood flood-opacity="0" result="BackgroundImageFix"/>
<feBlend mode="normal" in="SourceGraphic" in2="BackgroundImageFix" result="shape"/>
<feGaussianBlur stdDeviation="0.5" result="effect1_foregroundBlur_115_1876"/>
</filter>
<filter id="filter4_f_115_1876" x="5" y="16" width="2.5" height="2.5188" filterUnits="userSpaceOnUse" color-interpolation-filters="sRGB">
<feFlood flood-opacity="0" result="BackgroundImageFix"/>
<feBlend mode="normal" in="SourceGraphic" in2="BackgroundImageFix" result="shape"/>
<feGaussianBlur stdDeviation="0.5" result="effect1_foregroundBlur_115_1876"/>
</filter>
<filter id="filter5_f_115_1876" x="2" y="12" width="2.5" height="2.5188" filterUnits="userSpaceOnUse" color-interpolation-filters="sRGB">
<feFlood flood-opacity="0" result="BackgroundImageFix"/>
<feBlend mode="normal" in="SourceGraphic" in2="BackgroundImageFix" result="shape"/>
<feGaussianBlur stdDeviation="0.5" result="effect1_foregroundBlur_115_1876"/>
</filter>
<filter id="filter6_f_115_1876" x="8" y="9" width="2.5" height="2.5188" filterUnits="userSpaceOnUse" color-interpolation-filters="sRGB">
<feFlood flood-opacity="0" result="BackgroundImageFix"/>
<feBlend mode="normal" in="SourceGraphic" in2="BackgroundImageFix" result="shape"/>
<feGaussianBlur stdDeviation="0.5" result="effect1_foregroundBlur_115_1876"/>
</filter>
<filter id="filter7_f_115_1876" x="14" y="7" width="2.5" height="2.5188" filterUnits="userSpaceOnUse" color-interpolation-filters="sRGB">
<feFlood flood-opacity="0" result="BackgroundImageFix"/>
<feBlend mode="normal" in="SourceGraphic" in2="BackgroundImageFix" result="shape"/>
<feGaussianBlur stdDeviation="0.5" result="effect1_foregroundBlur_115_1876"/>
</filter>
<filter id="filter8_f_115_1876" x="21" y="4" width="2.5" height="2.5188" filterUnits="userSpaceOnUse" color-interpolation-filters="sRGB">
<feFlood flood-opacity="0" result="BackgroundImageFix"/>
<feBlend mode="normal" in="SourceGraphic" in2="BackgroundImageFix" result="shape"/>
<feGaussianBlur stdDeviation="0.5" result="effect1_foregroundBlur_115_1876"/>
</filter>
<filter id="filter9_f_115_1876" x="15" y="23" width="2.5" height="2.5188" filterUnits="userSpaceOnUse" color-interpolation-filters="sRGB">
<feFlood flood-opacity="0" result="BackgroundImageFix"/>
<feBlend mode="normal" in="SourceGraphic" in2="BackgroundImageFix" result="shape"/>
<feGaussianBlur stdDeviation="0.5" result="effect1_foregroundBlur_115_1876"/>
</filter>
<filter id="filter10_f_115_1876" x="10" y="25" width="2.5" height="2.5188" filterUnits="userSpaceOnUse" color-interpolation-filters="sRGB">
<feFlood flood-opacity="0" result="BackgroundImageFix"/>
<feBlend mode="normal" in="SourceGraphic" in2="BackgroundImageFix" result="shape"/>
<feGaussianBlur stdDeviation="0.5" result="effect1_foregroundBlur_115_1876"/>
</filter>
<filter id="filter11_f_115_1876" x="9" y="30" width="2.5" height="2.5188" filterUnits="userSpaceOnUse" color-interpolation-filters="sRGB">
<feFlood flood-opacity="0" result="BackgroundImageFix"/>
<feBlend mode="normal" in="SourceGraphic" in2="BackgroundImageFix" result="shape"/>
<feGaussianBlur stdDeviation="0.5" result="effect1_foregroundBlur_115_1876"/>
</filter>
<filter id="filter12_f_115_1876" x="5" y="30" width="2.5" height="2.5188" filterUnits="userSpaceOnUse" color-interpolation-filters="sRGB">
<feFlood flood-opacity="0" result="BackgroundImageFix"/>
<feBlend mode="normal" in="SourceGraphic" in2="BackgroundImageFix" result="shape"/>
<feGaussianBlur stdDeviation="0.5" result="effect1_foregroundBlur_115_1876"/>
</filter>
<filter id="filter13_f_115_1876" x="3" y="27" width="2.5" height="2.5188" filterUnits="userSpaceOnUse" color-interpolation-filters="sRGB">
<feFlood flood-opacity="0" result="BackgroundImageFix"/>
<feBlend mode="normal" in="SourceGraphic" in2="BackgroundImageFix" result="shape"/>
<feGaussianBlur stdDeviation="0.5" result="effect1_foregroundBlur_115_1876"/>
</filter>
<filter id="filter14_f_115_1876" x="21" y="22" width="2.5" height="2.5188" filterUnits="userSpaceOnUse" color-interpolation-filters="sRGB">
<feFlood flood-opacity="0" result="BackgroundImageFix"/>
<feBlend mode="normal" in="SourceGraphic" in2="BackgroundImageFix" result="shape"/>
<feGaussianBlur stdDeviation="0.5" result="effect1_foregroundBlur_115_1876"/>
</filter>
<filter id="filter15_f_115_1876" x="26" y="24" width="2.5" height="2.5188" filterUnits="userSpaceOnUse" color-interpolation-filters="sRGB">
<feFlood flood-opacity="0" result="BackgroundImageFix"/>
<feBlend mode="normal" in="SourceGraphic" in2="BackgroundImageFix" result="shape"/>
<feGaussianBlur stdDeviation="0.5" result="effect1_foregroundBlur_115_1876"/>
</filter>
<filter id="filter16_f_115_1876" x="24" y="7" width="2.5" height="2.5188" filterUnits="userSpaceOnUse" color-interpolation-filters="sRGB">
<feFlood flood-opacity="0" result="BackgroundImageFix"/>
<feBlend mode="normal" in="SourceGraphic" in2="BackgroundImageFix" result="shape"/>
<feGaussianBlur stdDeviation="0.5" result="effect1_foregroundBlur_115_1876"/>
</filter>
<linearGradient id="paint0_linear_115_1876" x1="16" y1="1" x2="16" y2="49" gradientUnits="userSpaceOnUse">
<stop stop-color="#120E25"/>
<stop offset="0.61" stop-color="#204999"/>
<stop offset="1" stop-color="#372EA6"/>
</linearGradient>
<linearGradient id="paint1_linear_115_1876" x1="1" y1="25" x2="31.6" y2="25" gradientUnits="userSpaceOnUse">
<stop stop-color="#EC84FF"/>
<stop offset="1" stop-color="#24E0FC"/>
</linearGradient>
</defs>
</svg>
