<svg width="48" height="48" viewBox="0 0 48 48" fill="none" xmlns="http://www.w3.org/2000/svg">
<rect width="48" height="48" rx="24" fill="#0053AD" fill-opacity="0.4"/>
<path opacity="0.12" d="M31.3019 16.6981C32.0786 15.9213 32.467 15.533 32.6838 15.5401C32.8702 15.5463 33.0377 15.6557 33.1182 15.824C33.2119 16.0196 33.0122 16.5313 32.6128 17.5546L26.7466 32.5869C26.5143 33.182 26.3982 33.4795 26.2313 33.5662C26.0866 33.6414 25.9144 33.6413 25.7698 33.566C25.603 33.4791 25.4872 33.1814 25.2557 32.586L22.5 25.5L31.3019 16.6981Z" fill="#0053AD"/>
<path d="M22.5 25.5002L33 15.0002M22.6276 25.8282L25.2557 32.5862C25.4872 33.1816 25.603 33.4792 25.7698 33.5661C25.9144 33.6415 26.0866 33.6416 26.2313 33.5664C26.3982 33.4797 26.5143 33.1822 26.7466 32.5871L33.3369 15.6994C33.5465 15.1622 33.6514 14.8936 33.594 14.722C33.5442 14.5729 33.4273 14.456 33.2782 14.4062C33.1066 14.3488 32.838 14.4536 32.3008 14.6633L15.4131 21.2536C14.818 21.4858 14.5204 21.602 14.4337 21.7689C14.3586 21.9135 14.3587 22.0858 14.434 22.2304C14.5209 22.3972 14.8186 22.5129 15.4139 22.7445L22.1719 25.3726C22.2928 25.4196 22.3532 25.4431 22.4041 25.4794C22.4492 25.5115 22.4886 25.551 22.5208 25.5961C22.5571 25.6469 22.5806 25.7074 22.6276 25.8282Z" stroke="#0053AD" stroke-width="2" stroke-linecap="round" stroke-linejoin="round"/>
</svg>
